<svg version="1.1" id="Layer_1" xmlns="http://www.w3.org/2000/svg" xmlns:xlink="http://www.w3.org/1999/xlink" x="0px" y="0px"
	 width="100%" viewBox="0 0 100 100" enable-background="new 0 0 100 100" xml:space="preserve">
<path fill="#FCFCFC" opacity="1.000000" stroke="none" 
	d="
M101.000000,57.000000 
	C101.000000,71.631523 101.000000,86.263054 101.000000,100.947289 
	C67.781738,100.947289 34.563377,100.947289 1.000000,100.947289 
	C1.000000,88.314522 1.000000,75.625923 1.360424,62.489944 
	C4.154972,68.962997 8.920218,73.226471 16.273205,73.903778 
	C23.378750,74.558289 30.682468,77.480377 37.551739,72.715508 
	C38.055492,72.366074 39.126972,72.892685 39.937431,72.917831 
	C43.372498,73.024422 46.836586,73.412529 50.238594,73.113045 
	C57.198551,72.500351 64.080528,72.401848 69.629532,77.320908 
	C74.567001,81.697853 78.989189,86.652031 83.734337,91.252922 
	C84.848083,92.332802 86.606880,93.940674 87.606056,93.659691 
	C89.027367,93.260017 90.389992,91.512825 91.095863,90.019135 
	C91.843216,88.437645 92.138412,86.456200 92.023277,84.689041 
	C91.703445,79.780029 91.067932,74.891579 90.559265,70.015381 
	C92.475868,68.325523 94.873856,66.706429 96.602524,64.550629 
	C98.404541,62.303337 99.561188,59.538536 101.000000,57.000000 
z"/>
<path fill="#FCFCFC" opacity="1.000000" stroke="none" 
	d="
M1.000000,45.000000 
	C1.000000,30.366140 1.000000,15.732279 1.000000,1.049209 
	C34.225906,1.049209 67.451904,1.049209 101.000000,1.049209 
	C101.000000,18.019541 101.000000,35.041111 100.635719,52.360638 
	C99.904922,49.267254 99.567612,45.872429 99.163605,42.485561 
	C98.765930,39.151817 99.467636,34.859249 97.654739,32.671112 
	C91.204514,24.885771 83.949295,17.754028 73.939728,14.380585 
	C71.839821,13.672872 69.633919,12.955499 67.843025,11.714255 
	C61.832233,7.548257 55.748943,6.915551 49.064468,10.078856 
	C46.696861,11.199283 43.883305,11.838037 41.262741,11.871682 
	C34.925133,11.953050 30.064619,14.443567 26.411692,19.530296 
	C25.567417,20.705954 24.856033,22.262094 23.682713,22.871521 
	C13.865253,27.970751 6.073195,35.072449 1.000000,45.000000 
z"/>
<path fill="#141414" opacity="1.000000" stroke="none" 
	d="
M1.000000,45.467606 
	C6.073195,35.072449 13.865253,27.970751 23.682713,22.871521 
	C24.856033,22.262094 25.567417,20.705954 26.411692,19.530296 
	C30.064619,14.443567 34.925133,11.953050 41.262741,11.871682 
	C43.883305,11.838037 46.696861,11.199283 49.064468,10.078856 
	C55.748943,6.915551 61.832233,7.548257 67.843025,11.714255 
	C69.633919,12.955499 71.839821,13.672872 73.939728,14.380585 
	C83.949295,17.754028 91.204514,24.885771 97.654739,32.671112 
	C99.467636,34.859249 98.765930,39.151817 99.163605,42.485561 
	C99.567612,45.872429 99.904922,49.267254 100.635719,52.829296 
	C101.000000,54.066669 101.000000,55.133339 101.000000,56.600006 
	C99.561188,59.538536 98.404541,62.303337 96.602524,64.550629 
	C94.873856,66.706429 92.475868,68.325523 90.559265,70.015381 
	C91.067932,74.891579 91.703445,79.780029 92.023277,84.689041 
	C92.138412,86.456200 91.843216,88.437645 91.095863,90.019135 
	C90.389992,91.512825 89.027367,93.260017 87.606056,93.659691 
	C86.606880,93.940674 84.848083,92.332802 83.734337,91.252922 
	C78.989189,86.652031 74.567001,81.697853 69.629532,77.320908 
	C64.080528,72.401848 57.198551,72.500351 50.238594,73.113045 
	C46.836586,73.412529 43.372498,73.024422 39.937431,72.917831 
	C39.126972,72.892685 38.055492,72.366074 37.551739,72.715508 
	C30.682468,77.480377 23.378750,74.558289 16.273205,73.903778 
	C8.920218,73.226471 4.154972,68.962997 1.360424,62.021286 
	C1.000000,56.645069 1.000000,51.290142 1.000000,45.467606 
M74.906830,19.966904 
	C72.028610,19.117586 68.509293,19.036301 66.395187,17.271587 
	C60.594135,12.429260 55.455914,11.908194 49.249077,16.259020 
	C47.862892,17.230696 45.657879,17.777538 44.004917,17.495171 
	C37.263714,16.343590 32.704449,18.472605 29.510738,24.410971 
	C28.756470,25.813452 27.320351,27.297058 25.869959,27.802700 
	C18.031939,30.535225 13.983980,37.711742 8.021339,42.615864 
	C7.670007,42.904827 7.401656,43.478523 7.366822,43.940250 
	C6.982874,49.029598 6.110380,54.161999 6.472582,59.203533 
	C6.786671,63.575356 9.764176,67.048630 14.164469,68.137611 
	C18.780195,69.279907 24.161671,71.307648 28.191465,69.943672 
	C34.931778,67.662285 41.449139,68.791771 47.999599,68.084236 
	C58.976784,66.898560 68.567566,68.528526 76.705002,76.129662 
	C80.007408,79.214432 82.893135,82.745300 85.968468,86.073181 
	C86.534500,85.731575 87.100533,85.389961 87.666565,85.048347 
	C86.385490,78.848198 85.104416,72.648041 83.844925,66.552345 
	C93.604645,62.506916 96.708984,57.425644 94.611809,50.039803 
	C93.980904,47.817890 93.876839,45.261135 94.249573,42.974850 
	C95.292130,36.580135 92.539131,31.611530 86.484161,28.999432 
	C84.680656,28.221395 83.267349,26.526976 81.694473,25.229141 
	C79.679550,23.566547 77.684036,21.880411 74.906830,19.966904 
z"/>
<path fill="#F8F8F8" opacity="1.000000" stroke="none" 
	d="
M75.293495,20.085663 
	C77.684036,21.880411 79.679550,23.566547 81.694473,25.229141 
	C83.267349,26.526976 84.680656,28.221395 86.484161,28.999432 
	C92.539131,31.611530 95.292130,36.580135 94.249573,42.974850 
	C93.876839,45.261135 93.980904,47.817890 94.611809,50.039803 
	C96.708984,57.425644 93.604645,62.506916 83.844925,66.552345 
	C85.104416,72.648041 86.385490,78.848198 87.666565,85.048347 
	C87.100533,85.389961 86.534500,85.731575 85.968468,86.073181 
	C82.893135,82.745300 80.007408,79.214432 76.705002,76.129662 
	C68.567566,68.528526 58.976784,66.898560 47.999599,68.084236 
	C41.449139,68.791771 34.931778,67.662285 28.191465,69.943672 
	C24.161671,71.307648 18.780195,69.279907 14.164469,68.137611 
	C9.764176,67.048630 6.786671,63.575356 6.472582,59.203533 
	C6.110380,54.161999 6.982874,49.029598 7.366822,43.940250 
	C7.401656,43.478523 7.670007,42.904827 8.021339,42.615864 
	C13.983980,37.711742 18.031939,30.535225 25.869959,27.802700 
	C27.320351,27.297058 28.756470,25.813452 29.510738,24.410971 
	C32.704449,18.472605 37.263714,16.343590 44.004917,17.495171 
	C45.657879,17.777538 47.862892,17.230696 49.249077,16.259020 
	C55.455914,11.908194 60.594135,12.429260 66.395187,17.271587 
	C68.509293,19.036301 72.028610,19.117586 75.293495,20.085663 
M52.886688,36.579739 
	C52.883064,34.415176 53.126347,32.210079 52.780224,30.101746 
	C52.582779,28.899050 51.424076,27.854162 50.698204,26.738218 
	C49.982758,27.850618 48.670277,28.950674 48.646973,30.077389 
	C48.471451,38.565422 48.473866,47.060120 48.633030,55.548752 
	C48.655910,56.769131 49.816158,57.968185 50.450050,59.177109 
	C51.261066,57.966232 52.721668,56.782089 52.772789,55.539944 
	C53.019100,49.555229 52.885456,43.554878 52.886688,36.579739 
M59.710686,46.573689 
	C59.723862,49.880108 59.576500,53.199997 59.851986,56.484413 
	C59.930515,57.420677 61.237160,58.253933 61.980629,59.134418 
	C62.618423,58.300022 63.785053,57.480114 63.808380,56.628880 
	C63.962276,51.012634 63.951019,45.387012 63.767967,39.771801 
	C63.741642,38.964268 62.501358,38.196308 61.822868,37.410030 
	C61.128223,38.326096 60.023716,39.163620 59.829788,40.175640 
	C59.493301,41.931622 59.720097,43.795544 59.710686,46.573689 
M41.880699,53.234352 
	C41.847729,51.071487 42.023159,48.874973 41.682003,46.761864 
	C41.540131,45.883099 40.296211,45.182255 39.553425,44.400505 
	C38.857029,45.199795 37.612946,45.964481 37.559879,46.804413 
	C37.340420,50.278271 37.377308,53.780945 37.578957,57.258015 
	C37.618725,57.943729 38.757584,59.007854 39.473785,59.081802 
	C40.126644,59.149212 41.236019,58.247856 41.528477,57.524548 
	C41.942398,56.500813 41.790634,55.248360 41.880699,53.234352 
z"/>
<path fill="#131313" opacity="1.000000" stroke="none" 
	d="
M52.886662,37.069908 
	C52.885456,43.554878 53.019100,49.555229 52.772789,55.539944 
	C52.721668,56.782089 51.261066,57.966232 50.450050,59.177109 
	C49.816158,57.968185 48.655910,56.769131 48.633030,55.548752 
	C48.473866,47.060120 48.471451,38.565422 48.646973,30.077389 
	C48.670277,28.950674 49.982758,27.850618 50.698204,26.738218 
	C51.424076,27.854162 52.582779,28.899050 52.780224,30.101746 
	C53.126347,32.210079 52.883064,34.415176 52.886662,37.069908 
z"/>
<path fill="#151515" opacity="1.000000" stroke="none" 
	d="
M59.710678,46.093945 
	C59.720097,43.795544 59.493301,41.931622 59.829788,40.175640 
	C60.023716,39.163620 61.128223,38.326096 61.822868,37.410034 
	C62.501358,38.196308 63.741642,38.964268 63.767967,39.771801 
	C63.951019,45.387012 63.962276,51.012634 63.808380,56.628880 
	C63.785053,57.480114 62.618423,58.300022 61.980629,59.134422 
	C61.237160,58.253933 59.930515,57.420677 59.851986,56.484413 
	C59.576500,53.199997 59.723862,49.880108 59.710678,46.093945 
z"/>
<path fill="#292929" opacity="1.000000" stroke="none" 
	d="
M41.880676,53.664009 
	C41.790634,55.248360 41.942398,56.500813 41.528477,57.524548 
	C41.236019,58.247856 40.126644,59.149212 39.473785,59.081802 
	C38.757584,59.007854 37.618725,57.943729 37.578957,57.258015 
	C37.377308,53.780945 37.340420,50.278271 37.559879,46.804413 
	C37.612946,45.964481 38.857029,45.199795 39.553425,44.400505 
	C40.296211,45.182255 41.540131,45.883099 41.682003,46.761864 
	C42.023159,48.874973 41.847729,51.071487 41.880676,53.664009 
z"/>
</svg>