<svg version="1.1" id="Layer_1" xmlns="http://www.w3.org/2000/svg" xmlns:xlink="http://www.w3.org/1999/xlink" x="0px" y="0px"
	 width="100%" viewBox="0 0 960 720" enable-background="new 0 0 960 720" xml:space="preserve">
<path fill="#FFFFFF" opacity="1.000000" stroke="none" 
	d="
M0.999998,371.000000 
	C1.000000,247.700134 1.000000,124.400261 1.000000,1.050194 
	C320.879700,1.050194 640.759460,1.050194 961.000000,1.050194 
	C961.000000,76.692116 961.000000,152.384811 960.532837,228.580460 
	C937.407104,229.055069 914.747803,228.950958 892.091187,229.147369 
	C890.345642,229.162476 887.955994,230.892731 886.982361,232.501633 
	C872.934814,255.713287 859.084106,279.044067 845.174133,302.339050 
	C839.022278,312.641571 832.843201,322.927856 826.388672,333.701965 
	C824.945862,331.333405 823.898499,329.643890 822.879761,327.937317 
	C803.940491,296.209198 784.968933,264.500214 766.130981,232.712051 
	C764.506409,229.970627 762.884888,228.868683 759.556030,228.896194 
	C736.564636,229.086151 713.570984,228.991684 690.578003,229.006958 
	C689.043884,229.007980 687.509888,229.159195 685.472839,229.267212 
	C686.562561,231.179428 687.267334,232.471939 688.022949,233.733978 
	C719.829529,286.857910 751.666504,339.963715 783.367249,393.150726 
	C784.806702,395.565857 785.686218,398.707458 785.702820,401.517303 
	C785.871399,430.174194 785.802551,458.832489 785.817383,487.490387 
	C785.818237,489.233978 785.964111,490.977509 786.034912,492.551331 
	C811.061584,492.551331 835.469116,492.551331 860.140686,492.551331 
	C860.140686,490.563782 860.140747,488.910614 860.140747,487.257446 
	C860.140808,459.266022 860.059631,431.273987 860.254456,403.283936 
	C860.276184,400.157013 861.229675,396.665039 862.821655,393.976349 
	C886.907166,353.300537 911.143005,312.713562 935.410034,272.145538 
	C943.846985,258.041382 952.464844,244.045410 961.000000,230.000015 
	C961.000000,393.627899 961.000000,557.255798 961.000000,720.941895 
	C641.114563,720.941895 321.229065,720.941895 1.000000,720.941895 
	C1.000000,610.641052 1.000000,500.281799 1.356146,389.600098 
	C1.830912,389.587982 1.978418,389.890533 2.064035,390.209686 
	C9.606655,418.325806 30.000635,433.017517 59.313110,431.552063 
	C60.891678,431.473145 62.575756,431.996124 64.098869,432.547760 
	C80.844040,438.612305 96.764023,437.096222 112.018372,427.787994 
	C113.518623,426.872528 115.906845,426.929810 117.786049,427.202606 
	C125.300697,428.293732 132.755402,430.473785 140.273773,430.671204 
	C147.664566,430.865326 155.086578,428.904236 162.528702,428.318024 
	C176.481415,427.218994 190.122162,427.894684 202.635925,435.485382 
	C223.858337,448.358734 242.306396,464.112396 255.686829,485.294586 
	C258.414398,489.612518 261.990753,493.146088 267.283508,492.717468 
	C272.825287,492.268677 275.715485,487.869965 277.790863,483.108765 
	C278.318909,481.897308 278.672455,480.598663 279.001495,479.313263 
	C281.937988,467.842957 282.192108,456.159668 280.332764,444.607422 
	C278.944733,435.983429 276.164642,427.583466 273.972046,418.956116 
	C274.267731,418.729187 274.604584,418.332703 275.031555,418.162811 
	C299.552856,408.406311 314.393829,377.276672 302.200104,349.179962 
	C301.560394,347.705902 301.680969,345.607697 302.137787,343.995636 
	C310.294312,315.211792 296.079254,287.908691 267.866882,278.116394 
	C266.174774,277.529083 264.367004,276.167664 263.438049,274.658600 
	C253.003204,257.707367 237.919662,248.979599 218.045990,248.201752 
	C216.016251,248.122314 213.518372,247.097519 212.123337,245.654953 
	C192.726852,225.597809 162.848404,223.565125 140.956604,240.810379 
	C139.433975,242.009827 136.733994,242.723648 134.867416,242.324875 
	C110.065948,237.026321 86.666855,248.275406 75.254585,271.003906 
	C74.374481,272.756714 72.289726,274.543335 70.419060,275.058502 
	C56.041931,279.017853 45.112980,287.284882 37.445408,300.069794 
	C36.341343,301.910706 34.480019,303.642059 32.558056,304.595001 
	C11.364956,315.102814 0.410361,335.493469 2.894190,359.214966 
	C3.294212,363.035339 1.682019,367.066345 0.999998,371.000000 
M457.035950,287.430328 
	C445.779053,268.942841 434.461578,250.491638 423.341248,231.922363 
	C421.936493,229.576645 420.491516,228.921188 417.908264,228.937195 
	C399.910126,229.048737 381.910950,228.991272 363.912109,229.006073 
	C362.809753,229.006989 361.707550,229.162338 360.746765,229.235123 
	C360.746765,317.321075 360.746765,405.010651 360.746765,492.670013 
	C383.659729,492.670013 406.106262,492.670013 429.117126,492.670013 
	C429.117126,447.790070 429.117126,403.124603 429.117126,356.991150 
	C431.163971,360.204590 432.415771,362.106323 433.605011,364.046387 
	C453.793579,396.979767 474.002197,429.900940 494.105011,462.886658 
	C495.749847,465.585602 497.448120,466.853638 500.788513,466.728271 
	C508.610321,466.434692 516.458130,466.432831 524.280273,466.721588 
	C528.047607,466.860657 530.192322,465.770508 532.189209,462.387665 
	C552.754211,427.549652 573.525085,392.833160 594.251953,358.090820 
	C594.948303,356.923615 595.786316,355.840942 596.558289,354.718903 
	C596.995544,354.811951 597.432800,354.904968 597.870056,354.998016 
	C597.870056,400.890717 597.870056,446.783417 597.870056,492.606415 
	C621.207703,492.606415 643.613708,492.606415 665.692993,492.606415 
	C665.692993,404.610016 665.692993,316.897430 665.692993,228.995544 
	C645.658142,228.995544 626.331665,228.941681 607.007141,229.111038 
	C605.650574,229.122910 603.784363,230.472031 603.035889,231.725342 
	C580.415649,269.601715 557.910583,307.546844 535.377075,345.475037 
	C528.444214,357.144379 521.480835,368.795624 514.117126,381.150146 
	C494.941223,349.675537 476.171875,318.868225 457.035950,287.430328 
z"/>
<path fill="#020202" opacity="1.000000" stroke="none" 
	d="
M961.000000,229.750015 
	C952.464844,244.045410 943.846985,258.041382 935.410034,272.145538 
	C911.143005,312.713562 886.907166,353.300537 862.821655,393.976349 
	C861.229675,396.665039 860.276184,400.157013 860.254456,403.283936 
	C860.059631,431.273987 860.140808,459.266022 860.140747,487.257446 
	C860.140747,488.910614 860.140686,490.563782 860.140686,492.551331 
	C835.469116,492.551331 811.061584,492.551331 786.034912,492.551331 
	C785.964111,490.977509 785.818237,489.233978 785.817383,487.490387 
	C785.802551,458.832489 785.871399,430.174194 785.702820,401.517303 
	C785.686218,398.707458 784.806702,395.565857 783.367249,393.150726 
	C751.666504,339.963715 719.829529,286.857910 688.022949,233.733978 
	C687.267334,232.471939 686.562561,231.179428 685.472839,229.267212 
	C687.509888,229.159195 689.043884,229.007980 690.578003,229.006958 
	C713.570984,228.991684 736.564636,229.086151 759.556030,228.896194 
	C762.884888,228.868683 764.506409,229.970627 766.130981,232.712051 
	C784.968933,264.500214 803.940491,296.209198 822.879761,327.937317 
	C823.898499,329.643890 824.945862,331.333405 826.388672,333.701965 
	C832.843201,322.927856 839.022278,312.641571 845.174133,302.339050 
	C859.084106,279.044067 872.934814,255.713287 886.982361,232.501633 
	C887.955994,230.892731 890.345642,229.162476 892.091187,229.147369 
	C914.747803,228.950958 937.407104,229.055069 960.532837,229.041718 
	C961.000000,229.000000 961.000000,229.500000 961.000000,229.750015 
M834.376404,427.300201 
	C833.609436,426.227173 832.976501,425.018463 832.052124,424.104706 
	C828.036499,420.135437 820.886230,419.338623 815.869873,422.196442 
	C811.172852,424.872345 808.833923,430.408142 810.098328,435.856232 
	C811.264893,440.882416 815.826294,444.627991 821.207153,444.977966 
	C831.620544,445.655243 837.196655,438.643250 834.376404,427.300201 
M827.706299,466.690094 
	C825.589783,467.838867 823.082214,470.274902 821.464111,469.783234 
	C819.762390,469.266235 818.166138,466.053528 817.851685,463.830872 
	C817.279419,459.786774 817.689209,455.603760 817.689209,451.272034 
	C815.486694,451.272034 813.805969,451.272034 812.053711,451.272034 
	C812.053711,456.469604 811.736267,461.316132 812.135193,466.102966 
	C812.619629,471.915924 816.282104,474.897705 822.177429,475.050201 
	C828.575806,475.215729 832.466980,472.524200 833.055542,466.612579 
	C833.557617,461.569672 833.159302,456.437195 833.159302,451.152832 
	C831.374390,451.152832 829.804993,451.152832 827.851013,451.152832 
	C827.851013,456.210358 827.851013,461.014862 827.706299,466.690094 
z"/>
<path fill="#070707" opacity="1.000000" stroke="none" 
	d="
M0.999998,371.467957 
	C1.682019,367.066345 3.294212,363.035339 2.894190,359.214966 
	C0.410361,335.493469 11.364956,315.102814 32.558056,304.595001 
	C34.480019,303.642059 36.341343,301.910706 37.445408,300.069794 
	C45.112980,287.284882 56.041931,279.017853 70.419060,275.058502 
	C72.289726,274.543335 74.374481,272.756714 75.254585,271.003906 
	C86.666855,248.275406 110.065948,237.026321 134.867416,242.324875 
	C136.733994,242.723648 139.433975,242.009827 140.956604,240.810379 
	C162.848404,223.565125 192.726852,225.597809 212.123337,245.654953 
	C213.518372,247.097519 216.016251,248.122314 218.045990,248.201752 
	C237.919662,248.979599 253.003204,257.707367 263.438049,274.658600 
	C264.367004,276.167664 266.174774,277.529083 267.866882,278.116394 
	C296.079254,287.908691 310.294312,315.211792 302.137787,343.995636 
	C301.680969,345.607697 301.560394,347.705902 302.200104,349.179962 
	C314.393829,377.276672 299.552856,408.406311 275.031555,418.162811 
	C274.604584,418.332703 274.267731,418.729187 273.972046,418.956116 
	C276.164642,427.583466 278.944733,435.983429 280.332764,444.607422 
	C282.192108,456.159668 281.937988,467.842957 279.001495,479.313263 
	C278.672455,480.598663 278.318909,481.897308 277.790863,483.108765 
	C275.715485,487.869965 272.825287,492.268677 267.283508,492.717468 
	C261.990753,493.146088 258.414398,489.612518 255.686829,485.294586 
	C242.306396,464.112396 223.858337,448.358734 202.635925,435.485382 
	C190.122162,427.894684 176.481415,427.218994 162.528702,428.318024 
	C155.086578,428.904236 147.664566,430.865326 140.273773,430.671204 
	C132.755402,430.473785 125.300697,428.293732 117.786049,427.202606 
	C115.906845,426.929810 113.518623,426.872528 112.018372,427.787994 
	C96.764023,437.096222 80.844040,438.612305 64.098869,432.547760 
	C62.575756,431.996124 60.891678,431.473145 59.313110,431.552063 
	C30.000635,433.017517 9.606655,418.325806 2.064035,390.209686 
	C1.978418,389.890533 1.830912,389.587982 1.356146,389.138855 
	C1.000000,383.311951 1.000000,377.623932 0.999998,371.467957 
M186.397675,413.130707 
	C193.443710,415.567810 200.959747,417.127228 207.449600,420.602875 
	C228.837982,432.057373 247.053406,447.488434 261.886993,466.790771 
	C262.702332,467.851685 263.637238,468.820770 264.810394,470.170898 
	C267.025146,455.960022 265.781311,445.334229 260.557526,429.752045 
	C258.206024,422.737671 256.174133,415.616119 254.002686,408.560974 
	C257.801331,407.337158 260.629608,406.412964 263.465973,405.514252 
	C287.361816,397.942566 297.247437,375.697784 286.549042,353.199066 
	C284.690308,349.290222 284.536438,345.847168 286.139038,341.785736 
	C294.668457,320.169464 282.065491,297.170227 259.410522,292.016937 
	C256.599091,291.377411 253.868881,288.807678 251.892181,286.464905 
	C249.352890,283.455322 248.065674,279.363739 245.445175,276.453033 
	C237.555130,267.689148 227.689209,263.224274 215.658401,264.187347 
	C211.366302,264.530945 207.317459,264.945190 204.022095,260.623810 
	C189.401764,241.451599 165.445404,239.466782 147.885468,256.019684 
	C143.678802,259.985077 139.971603,260.759399 134.490326,258.827545 
	C115.642876,252.184845 94.892876,261.831940 88.559296,280.497803 
	C86.424072,286.790588 82.933525,289.137024 76.900223,289.994354 
	C64.398018,291.770782 55.561672,298.885681 50.114552,310.101166 
	C48.247066,313.946259 45.788502,316.346771 41.688911,317.874359 
	C25.627569,323.859131 16.494642,339.921143 18.684860,356.776550 
	C19.221535,360.906647 18.992193,365.409943 17.931612,369.429413 
	C11.190951,394.975830 31.779123,418.920197 58.002430,415.950043 
	C61.161770,415.592194 64.798302,415.812347 67.657280,417.049927 
	C82.160072,423.327698 95.289299,421.164764 107.366081,411.412537 
	C111.378998,408.171997 115.100960,407.835358 119.655960,410.550995 
	C127.383110,415.157837 135.809113,415.630096 144.749619,414.839325 
	C158.290741,413.641693 171.930801,413.562836 186.397675,413.130707 
z"/>
<path fill="#020202" opacity="1.000000" stroke="none" 
	d="
M457.219238,287.745636 
	C476.171875,318.868225 494.941223,349.675537 514.117126,381.150146 
	C521.480835,368.795624 528.444214,357.144379 535.377075,345.475037 
	C557.910583,307.546844 580.415649,269.601715 603.035889,231.725342 
	C603.784363,230.472031 605.650574,229.122910 607.007141,229.111038 
	C626.331665,228.941681 645.658142,228.995544 665.692993,228.995544 
	C665.692993,316.897430 665.692993,404.610016 665.692993,492.606415 
	C643.613708,492.606415 621.207703,492.606415 597.870056,492.606415 
	C597.870056,446.783417 597.870056,400.890717 597.870056,354.998016 
	C597.432800,354.904968 596.995544,354.811951 596.558289,354.718903 
	C595.786316,355.840942 594.948303,356.923615 594.251953,358.090820 
	C573.525085,392.833160 552.754211,427.549652 532.189209,462.387665 
	C530.192322,465.770508 528.047607,466.860657 524.280273,466.721588 
	C516.458130,466.432831 508.610321,466.434692 500.788513,466.728271 
	C497.448120,466.853638 495.749847,465.585602 494.105011,462.886658 
	C474.002197,429.900940 453.793579,396.979767 433.605011,364.046387 
	C432.415771,362.106323 431.163971,360.204590 429.117126,356.991150 
	C429.117126,403.124603 429.117126,447.790070 429.117126,492.670013 
	C406.106262,492.670013 383.659729,492.670013 360.746765,492.670013 
	C360.746765,405.010651 360.746765,317.321075 360.746765,229.235123 
	C361.707550,229.162338 362.809753,229.006989 363.912109,229.006073 
	C381.910950,228.991272 399.910126,229.048737 417.908264,228.937195 
	C420.491516,228.921188 421.936493,229.576645 423.341248,231.922363 
	C434.461578,250.491638 445.779053,268.942841 457.219238,287.745636 
M644.445190,435.702759 
	C644.535156,434.878571 644.700500,434.054657 644.703369,433.230194 
	C644.729858,425.488495 639.231567,420.363068 631.198547,420.612122 
	C623.373596,420.854706 618.381470,426.143677 618.794067,433.754395 
	C619.096191,439.327179 623.027527,443.771088 628.583008,444.819794 
	C635.782715,446.178864 641.048462,443.358673 644.445190,435.702759 
M638.553589,352.646454 
	C640.443604,353.378845 642.333679,354.111206 644.223694,354.843597 
	C641.638123,346.699921 638.654358,339.865753 635.531189,333.095886 
	C634.159912,330.123535 629.791443,329.381714 628.499207,332.024323 
	C624.988220,339.203949 621.887390,346.584137 618.623962,353.884827 
	C619.095581,354.345154 619.567200,354.805481 620.038757,355.265778 
	C621.703918,354.204041 623.873230,353.500854 624.934082,352.009308 
	C627.510681,348.386627 635.363770,348.130798 638.553589,352.646454 
M639.542908,365.256775 
	C639.435547,364.085693 639.784607,362.419586 639.142944,361.828064 
	C636.139038,359.058807 626.448669,360.248535 623.837830,363.481903 
	C620.977783,367.023834 621.858765,371.497406 626.039185,373.429260 
	C628.276489,374.463165 630.835205,374.785034 633.125977,375.727020 
	C634.177429,376.159424 634.933167,377.311066 635.822998,378.136566 
	C634.683655,378.888489 633.509033,380.318207 632.411804,380.261139 
	C629.497742,380.109528 626.617126,379.316254 622.601196,378.569611 
	C622.980591,380.349548 622.855896,382.828217 623.701050,383.221161 
	C628.355286,385.385101 633.449951,386.234711 638.006592,383.354950 
	C639.789062,382.228424 641.487061,379.330994 641.387146,377.331787 
	C641.290771,375.402130 639.151550,373.120392 637.314880,371.860321 
	C635.498779,370.614227 632.873413,370.613525 630.732910,369.746033 
	C629.679016,369.318909 628.918457,368.167969 628.025146,367.344574 
	C629.133118,366.526062 630.222046,365.054535 631.352844,365.021667 
	C633.900879,364.947662 636.469543,365.585876 639.542908,365.256775 
M630.944153,395.817261 
	C633.187256,395.998779 635.793274,395.519379 637.593201,396.507843 
	C640.747070,398.239777 641.623779,396.626465 642.744873,394.473145 
	C637.258972,389.262268 628.687256,389.224426 623.863342,394.223663 
	C619.283936,398.969452 619.549988,407.377014 624.417664,411.739136 
	C629.640869,416.419891 637.870605,416.062714 643.666016,409.800751 
	C641.244995,409.435028 639.368286,408.547699 638.017334,409.056458 
	C633.253784,410.850586 629.503113,410.297455 627.391418,406.905029 
	C625.159302,403.319214 626.140686,399.451752 630.944153,395.817261 
M640.176453,450.949219 
	C633.907349,450.949219 627.638306,450.949219 621.371155,450.949219 
	C620.250549,458.770355 626.554199,454.029602 629.004211,456.708527 
	C629.004211,462.211151 629.004211,468.317657 629.004211,474.554138 
	C630.966553,474.554138 632.507812,474.554138 634.602783,474.554138 
	C634.602783,468.180481 634.602783,462.115387 634.602783,455.877502 
	C636.280701,455.795258 637.421326,455.763855 638.557617,455.676666 
	C639.665588,455.591675 640.769104,455.449554 642.531189,455.263000 
	C641.969666,453.600739 641.536804,452.319397 640.176453,450.949219 
z"/>
<path fill="#EAEAEA" opacity="1.000000" stroke="none" 
	d="
M834.549683,427.640930 
	C837.196655,438.643250 831.620544,445.655243 821.207153,444.977966 
	C815.826294,444.627991 811.264893,440.882416 810.098328,435.856232 
	C808.833923,430.408142 811.172852,424.872345 815.869873,422.196442 
	C820.886230,419.338623 828.036499,420.135437 832.052124,424.104706 
	C832.976501,425.018463 833.609436,426.227173 834.549683,427.640930 
M830.042969,433.374908 
	C828.839600,431.002625 828.198975,427.928192 826.308533,426.413300 
	C823.002441,423.763885 818.060852,425.492798 816.193970,429.200073 
	C814.176453,433.206329 815.791443,438.012970 819.714355,439.677948 
	C824.148315,441.559845 827.878723,439.553223 830.042969,433.374908 
z"/>
<path fill="#E8E8E8" opacity="1.000000" stroke="none" 
	d="
M827.778687,466.254700 
	C827.851013,461.014862 827.851013,456.210358 827.851013,451.152832 
	C829.804993,451.152832 831.374390,451.152832 833.159302,451.152832 
	C833.159302,456.437195 833.557617,461.569672 833.055542,466.612579 
	C832.466980,472.524200 828.575806,475.215729 822.177429,475.050201 
	C816.282104,474.897705 812.619629,471.915924 812.135193,466.102966 
	C811.736267,461.316132 812.053711,456.469604 812.053711,451.272034 
	C813.805969,451.272034 815.486694,451.272034 817.689209,451.272034 
	C817.689209,455.603760 817.279419,459.786774 817.851685,463.830872 
	C818.166138,466.053528 819.762390,469.266235 821.464111,469.783234 
	C823.082214,470.274902 825.589783,467.838867 827.778687,466.254700 
z"/>
<path fill="#FDFDFD" opacity="1.000000" stroke="none" 
	d="
M185.963257,413.069672 
	C171.930801,413.562836 158.290741,413.641693 144.749619,414.839325 
	C135.809113,415.630096 127.383110,415.157837 119.655960,410.550995 
	C115.100960,407.835358 111.378998,408.171997 107.366081,411.412537 
	C95.289299,421.164764 82.160072,423.327698 67.657280,417.049927 
	C64.798302,415.812347 61.161770,415.592194 58.002430,415.950043 
	C31.779123,418.920197 11.190951,394.975830 17.931612,369.429413 
	C18.992193,365.409943 19.221535,360.906647 18.684860,356.776550 
	C16.494642,339.921143 25.627569,323.859131 41.688911,317.874359 
	C45.788502,316.346771 48.247066,313.946259 50.114552,310.101166 
	C55.561672,298.885681 64.398018,291.770782 76.900223,289.994354 
	C82.933525,289.137024 86.424072,286.790588 88.559296,280.497803 
	C94.892876,261.831940 115.642876,252.184845 134.490326,258.827545 
	C139.971603,260.759399 143.678802,259.985077 147.885468,256.019684 
	C165.445404,239.466782 189.401764,241.451599 204.022095,260.623810 
	C207.317459,264.945190 211.366302,264.530945 215.658401,264.187347 
	C227.689209,263.224274 237.555130,267.689148 245.445175,276.453033 
	C248.065674,279.363739 249.352890,283.455322 251.892181,286.464905 
	C253.868881,288.807678 256.599091,291.377411 259.410522,292.016937 
	C282.065491,297.170227 294.668457,320.169464 286.139038,341.785736 
	C284.536438,345.847168 284.690308,349.290222 286.549042,353.199066 
	C297.247437,375.697784 287.361816,397.942566 263.465973,405.514252 
	C260.629608,406.412964 257.801331,407.337158 254.002686,408.560974 
	C256.174133,415.616119 258.206024,422.737671 260.557526,429.752045 
	C265.781311,445.334229 267.025146,455.960022 264.810394,470.170898 
	C263.637238,468.820770 262.702332,467.851685 261.886993,466.790771 
	C247.053406,447.488434 228.837982,432.057373 207.449600,420.602875 
	C200.959747,417.127228 193.443710,415.567810 185.963257,413.069672 
M160.158646,323.500061 
	C160.148651,313.337372 160.156693,303.174652 160.119858,293.012054 
	C160.104889,288.885010 158.086105,286.245331 153.884995,286.083282 
	C149.884399,285.928986 147.935883,288.546356 147.304352,292.230438 
	C147.109360,293.367981 147.160202,294.553955 147.159927,295.717743 
	C147.153580,322.541016 147.145218,349.364288 147.179672,376.187531 
	C147.181992,377.995300 147.359299,379.836609 147.734695,381.602905 
	C148.481033,385.114594 150.996231,386.563110 154.354431,386.309082 
	C157.806656,386.048035 159.730759,383.912567 160.066833,380.475586 
	C160.212234,378.988525 160.155731,377.479706 160.156143,375.980774 
	C160.160858,358.820526 160.158859,341.660309 160.158646,323.500061 
M181.411453,378.854309 
	C181.577896,383.228577 183.257889,386.372070 188.151764,386.372131 
	C192.299332,386.372162 194.153412,383.597290 194.159363,377.817596 
	C194.167236,370.157654 194.156418,362.497742 194.150848,354.837799 
	C194.143707,345.013245 194.114960,335.188629 194.134064,325.364136 
	C194.142044,321.261780 191.885880,319.078369 188.073669,318.880096 
	C184.388596,318.688385 182.231659,320.960876 181.629456,324.543488 
	C181.383667,326.005737 181.415817,327.523804 181.413910,329.016571 
	C181.393082,345.335449 181.390564,361.654327 181.411453,378.854309 
M113.093239,349.849426 
	C113.094711,359.158936 113.066414,368.468597 113.108604,377.777924 
	C113.134735,383.541595 115.464447,386.474121 119.789764,386.379822 
	C123.938751,386.289368 126.074356,383.524841 126.102699,377.947174 
	C126.150848,368.471710 126.139214,358.995758 126.101646,349.520172 
	C126.079979,344.054749 123.899193,341.063324 119.933235,340.865784 
	C116.060928,340.672913 113.736694,343.417999 113.093239,349.849426 
z"/>
<path fill="#E9E9E9" opacity="1.000000" stroke="none" 
	d="
M644.326904,436.076965 
	C641.048462,443.358673 635.782715,446.178864 628.583008,444.819794 
	C623.027527,443.771088 619.096191,439.327179 618.794067,433.754395 
	C618.381470,426.143677 623.373596,420.854706 631.198547,420.612122 
	C639.231567,420.363068 644.729858,425.488495 644.703369,433.230194 
	C644.700500,434.054657 644.535156,434.878571 644.326904,436.076965 
M635.233337,426.131378 
	C631.596191,424.491730 627.804443,424.801392 626.018311,428.255493 
	C624.779846,430.650482 624.483398,434.869293 625.835388,436.885895 
	C627.149963,438.846558 631.269165,440.168091 633.860229,439.781647 
	C639.841919,438.889587 640.751953,431.836853 635.233337,426.131378 
z"/>
<path fill="#EDEDED" opacity="1.000000" stroke="none" 
	d="
M638.363159,352.275269 
	C635.363770,348.130798 627.510681,348.386627 624.934082,352.009308 
	C623.873230,353.500854 621.703918,354.204041 620.038757,355.265778 
	C619.567200,354.805481 619.095581,354.345154 618.623962,353.884827 
	C621.887390,346.584137 624.988220,339.203949 628.499207,332.024323 
	C629.791443,329.381714 634.159912,330.123535 635.531189,333.095886 
	C638.654358,339.865753 641.638123,346.699921 644.223694,354.843597 
	C642.333679,354.111206 640.443604,353.378845 638.363159,352.275269 
M630.020752,339.925903 
	C629.487793,341.507172 628.954773,343.088470 628.356812,344.862701 
	C630.959839,344.862701 632.824890,344.862701 635.285217,344.862701 
	C634.034912,341.905151 632.988037,339.428833 631.717407,336.423309 
	C631.018982,337.783539 630.662659,338.477448 630.020752,339.925903 
z"/>
<path fill="#E2E2E2" opacity="1.000000" stroke="none" 
	d="
M639.286377,365.595520 
	C636.469543,365.585876 633.900879,364.947662 631.352844,365.021667 
	C630.222046,365.054535 629.133118,366.526062 628.025146,367.344574 
	C628.918457,368.167969 629.679016,369.318909 630.732910,369.746033 
	C632.873413,370.613525 635.498779,370.614227 637.314880,371.860321 
	C639.151550,373.120392 641.290771,375.402130 641.387146,377.331787 
	C641.487061,379.330994 639.789062,382.228424 638.006592,383.354950 
	C633.449951,386.234711 628.355286,385.385101 623.701050,383.221161 
	C622.855896,382.828217 622.980591,380.349548 622.601196,378.569611 
	C626.617126,379.316254 629.497742,380.109528 632.411804,380.261139 
	C633.509033,380.318207 634.683655,378.888489 635.822998,378.136566 
	C634.933167,377.311066 634.177429,376.159424 633.125977,375.727020 
	C630.835205,374.785034 628.276489,374.463165 626.039185,373.429260 
	C621.858765,371.497406 620.977783,367.023834 623.837830,363.481903 
	C626.448669,360.248535 636.139038,359.058807 639.142944,361.828064 
	C639.784607,362.419586 639.435547,364.085693 639.286377,365.595520 
z"/>
<path fill="#E8E8E8" opacity="1.000000" stroke="none" 
	d="
M630.537231,395.964111 
	C626.140686,399.451752 625.159302,403.319214 627.391418,406.905029 
	C629.503113,410.297455 633.253784,410.850586 638.017334,409.056458 
	C639.368286,408.547699 641.244995,409.435028 643.666016,409.800751 
	C637.870605,416.062714 629.640869,416.419891 624.417664,411.739136 
	C619.549988,407.377014 619.283936,398.969452 623.863342,394.223663 
	C628.687256,389.224426 637.258972,389.262268 642.744873,394.473145 
	C641.623779,396.626465 640.747070,398.239777 637.593201,396.507843 
	C635.793274,395.519379 633.187256,395.998779 630.537231,395.964111 
z"/>
<path fill="#E9E9E9" opacity="1.000000" stroke="none" 
	d="
M640.640198,450.993622 
	C641.536804,452.319397 641.969666,453.600739 642.531189,455.263000 
	C640.769104,455.449554 639.665588,455.591675 638.557617,455.676666 
	C637.421326,455.763855 636.280701,455.795258 634.602783,455.877502 
	C634.602783,462.115387 634.602783,468.180481 634.602783,474.554138 
	C632.507812,474.554138 630.966553,474.554138 629.004211,474.554138 
	C629.004211,468.317657 629.004211,462.211151 629.004211,456.708527 
	C626.554199,454.029602 620.250549,458.770355 621.371155,450.949219 
	C627.638306,450.949219 633.907349,450.949219 640.640198,450.993622 
z"/>
<path fill="#0F0F0F" opacity="1.000000" stroke="none" 
	d="
M829.992310,433.775696 
	C827.878723,439.553223 824.148315,441.559845 819.714355,439.677948 
	C815.791443,438.012970 814.176453,433.206329 816.193970,429.200073 
	C818.060852,425.492798 823.002441,423.763885 826.308533,426.413300 
	C828.198975,427.928192 828.839600,431.002625 829.992310,433.775696 
z"/>
<path fill="#070707" opacity="1.000000" stroke="none" 
	d="
M160.158646,324.000061 
	C160.158859,341.660309 160.160858,358.820526 160.156143,375.980774 
	C160.155731,377.479706 160.212234,378.988525 160.066833,380.475586 
	C159.730759,383.912567 157.806656,386.048035 154.354431,386.309082 
	C150.996231,386.563110 148.481033,385.114594 147.734695,381.602905 
	C147.359299,379.836609 147.181992,377.995300 147.179672,376.187531 
	C147.145218,349.364288 147.153580,322.541016 147.159927,295.717743 
	C147.160202,294.553955 147.109360,293.367981 147.304352,292.230438 
	C147.935883,288.546356 149.884399,285.928986 153.884995,286.083282 
	C158.086105,286.245331 160.104889,288.885010 160.119858,293.012054 
	C160.156693,303.174652 160.148651,313.337372 160.158646,324.000061 
z"/>
<path fill="#0A0A0A" opacity="1.000000" stroke="none" 
	d="
M181.397263,378.413757 
	C181.390564,361.654327 181.393082,345.335449 181.413910,329.016571 
	C181.415817,327.523804 181.383667,326.005737 181.629456,324.543488 
	C182.231659,320.960876 184.388596,318.688385 188.073669,318.880096 
	C191.885880,319.078369 194.142044,321.261780 194.134064,325.364136 
	C194.114960,335.188629 194.143707,345.013245 194.150848,354.837799 
	C194.156418,362.497742 194.167236,370.157654 194.159363,377.817596 
	C194.153412,383.597290 192.299332,386.372162 188.151764,386.372131 
	C183.257889,386.372070 181.577896,383.228577 181.397263,378.413757 
z"/>
<path fill="#080808" opacity="1.000000" stroke="none" 
	d="
M113.094261,349.395691 
	C113.736694,343.417999 116.060928,340.672913 119.933235,340.865784 
	C123.899193,341.063324 126.079979,344.054749 126.101646,349.520172 
	C126.139214,358.995758 126.150848,368.471710 126.102699,377.947174 
	C126.074356,383.524841 123.938751,386.289368 119.789764,386.379822 
	C115.464447,386.474121 113.134735,383.541595 113.108604,377.777924 
	C113.066414,368.468597 113.094711,359.158936 113.094261,349.395691 
z"/>
<path fill="#101010" opacity="1.000000" stroke="none" 
	d="
M635.575745,426.311829 
	C640.751953,431.836853 639.841919,438.889587 633.860229,439.781647 
	C631.269165,440.168091 627.149963,438.846558 625.835388,436.885895 
	C624.483398,434.869293 624.779846,430.650482 626.018311,428.255493 
	C627.804443,424.801392 631.596191,424.491730 635.575745,426.311829 
z"/>
<path fill="#222222" opacity="1.000000" stroke="none" 
	d="
M630.163574,339.548645 
	C630.662659,338.477448 631.018982,337.783539 631.717407,336.423309 
	C632.988037,339.428833 634.034912,341.905151 635.285217,344.862701 
	C632.824890,344.862701 630.959839,344.862701 628.356812,344.862701 
	C628.954773,343.088470 629.487793,341.507172 630.163574,339.548645 
z"/>
</svg>